<svg width="511" height="513" viewBox="0 0 511 513" fill="none" xmlns="http://www.w3.org/2000/svg">
<path d="M453.23 184.743C373.691 122.343 300.719 41.9994 270.459 7.25114C262.658 -1.70611 248.752 -1.70611 240.952 7.25114C210.691 41.9984 137.72 122.342 58.1805 184.743C22.0924 213.055 0.972656 255.626 0.972656 300.733C0.972656 380.789 67.6712 445.687 149.948 445.687C177.774 445.687 203.086 435.225 221.968 418.129V446.395C221.968 480.805 197.307 485.072 178.171 501.14C173.569 505.005 176.395 512.532 182.404 512.532H328.5C334.488 512.532 337.317 505.057 332.765 501.167C313.826 484.979 289.441 481.367 289.441 446.651V418.128C308.323 435.224 333.635 445.686 361.461 445.686C443.737 445.686 510.436 380.788 510.436 300.732C510.437 255.626 489.317 213.055 453.23 184.743Z" fill="black"/>
</svg>
