<svg width="580" height="513" viewBox="0 0 580 513" fill="none" xmlns="http://www.w3.org/2000/svg">
<path d="M425.391 0.533203C393.972 0.533203 365.167 10.5059 339.777 30.1748C315.435 49.0316 299.229 73.0492 289.688 90.5138C280.146 73.048 263.94 49.0316 239.598 30.1748C214.208 10.5059 185.403 0.533203 153.984 0.533203C66.3066 0.533203 0.1875 72.3684 0.1875 167.629C0.1875 270.543 82.6758 340.955 207.552 447.55C228.758 465.652 252.794 486.171 277.777 508.054C281.07 510.943 285.3 512.533 289.688 512.533C294.075 512.533 298.305 510.943 301.598 508.055C326.583 486.169 350.618 465.651 371.837 447.539C496.699 340.955 579.188 270.543 579.188 167.629C579.188 72.3684 513.068 0.533203 425.391 0.533203Z" fill="#D6002B"/>
</svg>
