<svg width="513" height="513" viewBox="0 0 513 513" fill="none" xmlns="http://www.w3.org/2000/svg">
<path d="M512.582 279.117C512.582 208.712 454.243 150.589 382.264 148.938C383.113 142.92 383.565 136.804 383.565 130.74C383.565 58.9323 323.712 0.533203 250.121 0.533203C176.55 0.533203 116.708 58.9323 116.708 130.74C116.708 139.285 117.571 147.822 119.257 156.178C52.612 163.337 0.582031 219.92 0.582031 285.56C0.582031 357.35 60.4499 415.766 134.038 415.766C174.068 415.766 212.394 397.906 237.558 367.794C227.017 415.174 195.608 474.199 107.369 497.487L103.696 498.469L105.563 512.533H409.868L411.514 498.345L407.815 497.487C403.824 496.505 310.958 472.553 281.044 367.405C306.003 393.745 342.278 409.305 379.156 409.305C452.72 409.305 512.582 350.916 512.582 279.117Z" fill="black"/>
</svg>
