<svg xmlns="http://www.w3.org/2000/svg" viewBox="0 0 48 48" id="deposit"><path d="M46.88 34.39A2.27 2.27 0 0 0 44 33l-6.24 1.93C36.18 36.37 35.58 36 24 36a1 1 0 0 1 0-2c12 0 11.59.23 12.47-.65A2.05 2.05 0 0 0 37 32a2 2 0 0 0-2-2H24.3c-1.39 0-2.55-2-6.6-2H11v10.42l1.29.73a27.78 27.78 0 0 0 24.38 1.65l9-3.63a2.26 2.26 0 0 0 1.21-2.78zM1 41h8V26H1zm3.08-4.38a1 1 0 1 1 1.63 1.09 1 1 0 0 1-1.63-1.09zM31 25a10 10 0 1 0-10-10 10 10 0 0 0 10 10zm1-9h-2a3 3 0 0 1 0-6V9a1 1 0 0 1 2 0v1h2a1 1 0 0 1 0 2h-4a1 1 0 0 0 0 2h2a3 3 0 0 1 0 6v1a1 1 0 0 1-2 0v-1h-2a1 1 0 0 1 0-2h4a1 1 0 0 0 0-2z"></path></svg>