<?xml version="1.0" standalone="no"?>
<!DOCTYPE svg PUBLIC "-//W3C//DTD SVG 20010904//EN"
 "http://www.w3.org/TR/2001/REC-SVG-20010904/DTD/svg10.dtd">
<svg version="1.0" xmlns="http://www.w3.org/2000/svg"
 width="154.000000pt" height="154.000000pt" viewBox="0 0 154.000000 154.000000"
 preserveAspectRatio="xMidYMid meet">

<g transform="translate(0.000000,154.000000) scale(0.100000,-0.100000)"
fill="red" stroke="none">
<path d="M1447 1514 c14 -6 6 -34 -15 -51 -12 -10 -158 -13 -652 -13 -493 0
-640 -3 -653 -12 -16 -12 -18 -66 -24 -653 -3 -352 -10 -650 -14 -662 -6 -17
-17 -23 -39 -23 l-30 0 -2 88 c-2 87 -2 87 -6 17 -4 -91 3 -127 32 -158 44
-48 61 -49 764 -41 l656 7 35 33 36 32 3 679 c2 496 -1 685 -9 706 -14 33 -46
57 -74 56 -11 0 -15 -3 -8 -5z m-582 -619 c52 -30 74 -62 82 -120 24 -175
-206 -266 -309 -123 -18 27 -23 46 -23 99 0 56 4 71 27 101 54 70 146 88 223
43z"/>
<path d="M13 370 c0 -30 2 -43 4 -27 2 15 2 39 0 55 -2 15 -4 2 -4 -28z"/>
</g>
</svg>
