<?xml version="1.0" standalone="no"?>
<!DOCTYPE svg PUBLIC "-//W3C//DTD SVG 20010904//EN"
 "http://www.w3.org/TR/2001/REC-SVG-20010904/DTD/svg10.dtd">
<svg version="1.0" xmlns="http://www.w3.org/2000/svg"
 width="154.000000pt" height="154.000000pt" viewBox="0 0 154.000000 154.000000"
 preserveAspectRatio="xMidYMid meet">

<g transform="translate(0.000000,154.000000) scale(0.100000,-0.100000)"
fill="red" stroke="none">
<path d="M1449 1513 c-3 -30 -9 -47 -21 -54 -7 -5 -304 -9 -659 -9 -505 0
-649 -3 -656 -12 -7 -8 -13 -259 -17 -659 -3 -356 -9 -654 -12 -663 -4 -12
-16 -15 -40 -12 -42 4 -44 -11 -8 -53 15 -18 42 -35 66 -41 28 -8 235 -9 691
-4 702 7 686 6 723 61 18 27 19 58 22 648 2 341 0 648 -3 683 -5 46 -13 70
-32 92 -23 28 -52 40 -54 23z m-1022 -179 c120 -69 82 -262 -58 -293 -164 -35
-266 166 -143 281 56 52 125 56 201 12z m859 -874 c50 -31 74 -75 74 -133 0
-89 -60 -156 -149 -165 -154 -14 -235 179 -119 284 52 48 129 53 194 14z"/>
</g>
</svg>
