<?xml version="1.0" standalone="no"?>
<!DOCTYPE svg PUBLIC "-//W3C//DTD SVG 20010904//EN"
 "http://www.w3.org/TR/2001/REC-SVG-20010904/DTD/svg10.dtd">
<svg version="1.0" xmlns="http://www.w3.org/2000/svg"
 width="154.000000pt" height="154.000000pt" viewBox="0 0 154.000000 154.000000"
 preserveAspectRatio="xMidYMid meet">

<g transform="translate(0.000000,154.000000) scale(0.100000,-0.100000)"
fill="red" stroke="none">
<path d="M1450 1501 c0 -11 -7 -27 -16 -35 -14 -14 -87 -16 -657 -16 -387 0
-648 -4 -657 -10 -13 -8 -16 -96 -20 -657 -3 -356 -9 -656 -14 -667 -7 -14
-16 -17 -42 -13 -19 3 -34 4 -34 1 0 -20 36 -67 63 -81 30 -17 77 -18 707 -15
740 4 701 1 740 65 19 31 20 55 20 694 0 388 -4 672 -9 686 -12 30 -49 67 -68
67 -7 0 -13 -9 -13 -19z m-993 -181 c64 -47 83 -147 41 -210 -39 -57 -72 -75
-138 -75 -66 0 -99 18 -138 75 -51 75 -13 189 78 232 32 16 124 3 157 -22z
m427 -434 c47 -35 68 -78 68 -136 0 -58 -20 -99 -67 -134 -67 -51 -152 -47
-216 11 -86 78 -73 208 28 270 53 33 136 29 187 -11z m414 -426 c47 -33 57
-50 67 -103 10 -53 -16 -118 -63 -153 -30 -23 -47 -28 -93 -29 -65 0 -98 18
-137 76 -30 44 -28 129 6 176 49 68 150 84 220 33z"/>
</g>
</svg>
