<?xml version="1.0" standalone="no"?>
<!DOCTYPE svg PUBLIC "-//W3C//DTD SVG 20010904//EN"
 "http://www.w3.org/TR/2001/REC-SVG-20010904/DTD/svg10.dtd">
<svg version="1.0" xmlns="http://www.w3.org/2000/svg"
 width="154.000000pt" height="154.000000pt" viewBox="0 0 154.000000 154.000000"
 preserveAspectRatio="xMidYMid meet">

<g transform="translate(0.000000,154.000000) scale(0.100000,-0.100000)"
fill="red" stroke="none">
<path d="M1451 1523 c3 -17 -2 -39 -11 -53 -8 -13 -97 -16 -664 -20 -360 -3
-657 -8 -660 -11 -3 -3 -9 -296 -13 -650 -3 -354 -10 -654 -14 -666 -6 -17
-17 -23 -39 -23 l-30 0 -2 88 -2 87 -3 -83 c-4 -95 10 -138 56 -165 27 -16 86
-17 710 -17 l681 0 38 34 37 34 3 681 c3 750 5 724 -58 756 -17 9 -30 12 -29
8z m-1020 -186 c73 -49 102 -144 64 -217 -39 -76 -140 -109 -217 -71 -96 47
-124 169 -58 253 46 59 150 76 211 35z m867 -3 c103 -60 108 -203 10 -271 -34
-23 -52 -28 -98 -28 -47 0 -63 5 -94 29 -43 32 -66 78 -66 130 0 132 133 207
248 140z m-863 -879 c98 -57 102 -204 7 -268 -49 -33 -84 -40 -134 -26 -110
29 -158 163 -92 257 45 65 144 82 219 37z m868 -2 c48 -34 71 -75 71 -133 0
-89 -69 -160 -155 -161 -70 -1 -111 21 -148 81 -39 65 -25 145 36 201 35 33
47 37 107 38 39 1 59 -5 89 -26z"/>
<path d="M13 370 c0 -30 2 -43 4 -27 2 15 2 39 0 55 -2 15 -4 2 -4 -28z"/>
</g>
</svg>
