<?xml version="1.0" standalone="no"?>
<!DOCTYPE svg PUBLIC "-//W3C//DTD SVG 20010904//EN"
 "http://www.w3.org/TR/2001/REC-SVG-20010904/DTD/svg10.dtd">
<svg version="1.0" xmlns="http://www.w3.org/2000/svg"
 width="154.000000pt" height="154.000000pt" viewBox="0 0 154.000000 154.000000"
 preserveAspectRatio="xMidYMid meet">

<g transform="translate(0.000000,154.000000) scale(0.100000,-0.100000)"
fill="red" stroke="none">
<path d="M1445 1508 c1 -13 -5 -31 -13 -40 -14 -17 -58 -18 -662 -18 -506 0
-650 -3 -657 -12 -7 -8 -13 -259 -17 -659 -3 -356 -9 -654 -12 -663 -4 -12
-16 -15 -40 -12 -45 4 -45 -15 0 -60 l34 -34 681 0 c743 0 717 -2 757 57 18
27 19 58 22 648 2 341 0 649 -3 685 -6 55 -12 69 -40 97 -39 39 -52 42 -50 11z
m-1013 -164 c48 -31 70 -74 70 -135 -1 -97 -64 -159 -163 -159 -96 0 -161 64
-161 159 0 78 36 130 109 157 47 17 97 10 145 -22z m858 4 c50 -34 72 -71 77
-125 5 -59 -16 -104 -70 -147 -30 -24 -47 -30 -85 -30 -113 1 -188 90 -168
199 8 38 57 102 90 115 43 18 121 11 156 -12z m-425 -443 c121 -92 63 -281
-89 -292 -39 -3 -60 1 -91 19 -45 26 -85 93 -85 143 0 50 40 117 85 143 55 32
129 27 180 -13z m-428 -441 c43 -33 63 -73 63 -128 0 -129 -130 -207 -241
-144 -67 37 -95 103 -77 180 11 50 58 104 103 118 47 14 114 3 152 -26z m860
0 c48 -37 66 -70 67 -122 1 -62 -18 -105 -63 -139 -30 -24 -46 -28 -98 -28
-47 0 -68 5 -89 21 -48 35 -67 70 -71 126 -10 139 144 226 254 142z"/>
</g>
</svg>
