<?xml version="1.0" standalone="no"?>
<!DOCTYPE svg PUBLIC "-//W3C//DTD SVG 20010904//EN"
 "http://www.w3.org/TR/2001/REC-SVG-20010904/DTD/svg10.dtd">
<svg version="1.0" xmlns="http://www.w3.org/2000/svg"
 width="154.000000pt" height="154.000000pt" viewBox="0 0 154.000000 154.000000"
 preserveAspectRatio="xMidYMid meet">

<g transform="translate(0.000000,154.000000) scale(0.100000,-0.100000)"
fill="red" stroke="none">
<path d="M1450 1506 c0 -58 27 -56 -673 -56 -387 0 -648 -4 -657 -10 -13 -8
-16 -96 -20 -657 -3 -356 -9 -656 -14 -667 -7 -14 -16 -17 -42 -13 -39 7 -39
6 -19 -33 32 -62 8 -60 753 -60 674 0 680 0 706 21 58 46 56 20 56 739 0 729
1 713 -61 746 -28 14 -29 14 -29 -10z m-989 -197 c40 -28 59 -69 59 -125 0
-88 -63 -148 -153 -147 -55 1 -89 21 -124 73 -53 77 -8 198 82 223 36 10 106
-2 136 -24z m795 -1 c122 -83 62 -272 -87 -272 -156 0 -207 210 -68 282 53 28
104 25 155 -10z m-818 -392 c54 -28 75 -62 79 -124 3 -45 0 -64 -16 -90 -79
-124 -266 -80 -278 67 -8 88 57 161 144 161 24 0 56 -6 71 -14z m813 -9 c120
-80 74 -262 -70 -274 -157 -14 -224 194 -89 277 46 28 115 26 159 -3z m-790
-408 c40 -28 59 -69 59 -125 0 -88 -61 -146 -151 -146 -155 0 -205 207 -68
280 52 28 113 25 160 -9z m776 10 c103 -50 110 -192 13 -257 -48 -32 -137 -28
-176 9 -57 53 -71 134 -34 194 44 72 118 92 197 54z"/>
</g>
</svg>
